{"title":"Star Crossed S01E05 HDTV x264 AAC [GWC].mp4","uid":9783563,"size":142373924,"categoryP":"video","categoryS":"tv_shows","magnet":"?xt=urn:btih:112170e9b177ea993e6243c9b03b10ffc13e7625&amp;dn=Star+Crossed+S01E05+HDTV+x264+AAC+%5BGWC%5D.mp4&amp;tr=udp%3A%2F%2Ftracker.openbittorrent.com%3A80&amp;tr=udp%3A%2F%2Fopen.demonii.com%3A1337&amp;tr=udp%3A%2F%2Ftracker.coppersurfer.tk%3A6969&amp;tr=udp%3A%2F%2Fexodus.desync.com%3A6969","seeders":1,"leechers":0,"uploader":"canc232","files":1,"time":1395133814,"description":"Star Crossed S01E05 HDTV x264 AAC [GWC]\n\n\nSTORYLINE :\nAbout an epic romance between a human girl and an alien boy when he and eight others of his kind are integrated into a suburban high school 10 years after they landed on Earth and were consigned to an internment camp.\n\n\nSCREENS : &lt;a href=&quot;\nhttp://i.imgur.com/lY2OMui.jpg&quot; rel=&quot;nofollow&quot; target=&quot;_NEW&quot;&gt;\nhttp://i.imgur.com/lY2OMui.jpg&lt;/a&gt; &lt;a href=&quot;\nhttp://i.imgur.com/MTPKMNn.jpg&quot; rel=&quot;nofollow&quot; target=&quot;_NEW&quot;&gt;\nhttp://i.imgur.com/MTPKMNn.jpg&lt;/a&gt; &lt;a href=&quot;\nhttp://i.imgur.com/IvkknEY.jpg&quot; rel=&quot;nofollow&quot; target=&quot;_NEW&quot;&gt;\nhttp://i.imgur.com/IvkknEY.jpg&lt;/a&gt;\n\n\nMEDIA INFO :\nGeneral \nFormat : MPEG-4 \nFormat profile : Base Media \nFile size : 136 MiB \nDuration : 41mn 10s \nOverall bit rate mode : Variable \nOverall bit rate : 461 Kbps \n\nVideo \nFormat : AVC \nFormat profile : &lt;a class=&quot;__cf_email__&quot; href=&quot;/cdn-cgi/l/email-protection&quot; data-cfemail=&quot;fcb4959b94bcb0cfd2cc&quot;&gt;[email&amp;#160;protected]&lt;/a&gt;&lt;script cf-hash='f9e31' type=&quot;text/javascript&quot;&gt;\n/* &lt;![CDATA[ */!function(){try{var t=&quot;currentScript&quot;in document?document.currentScript:function(){for(var t=document.getElementsByTagName(&quot;script&quot;),e=t.length;e--;)if(t[e].getAttribute(&quot;cf-hash&quot;))return t[e]}();if(t&amp;&amp;t.previousSibling){var e,r,n,i,c=t.previousSibling,a=c.getAttribute(&quot;data-cfemail&quot;);if(a){for(e=&quot;&quot;,r=parseInt(a.substr(0,2),16),n=2;a.length-n;n+=2)i=parseInt(a.substr(n,2),16)^r,e+=String.fromCharCode(i);e=document.createTextNode(e),c.parentNode.replaceChild(e,c)}}}catch(u){}}();/* ]]&gt; */&lt;/script&gt; \nFormat settings, CABAC : Yes \nFormat settings, ReFrames : 4 frames \nDuration : 41mn 10s \nBit rate : 398 Kbps \nMaximum bit rate : 2 706 Kbps \nWidth : 720 pixels \nHeight : 404 pixels \nDisplay aspect ratio : 16:9 \nFrame rate : 23.976 fps \nStream size : 117 MiB (86%) \nTitle : Star Crossed S01E05 HDTV x264 AAC [GWC] \nWriting library : x264 core \n\nAudio \nFormat : AAC \nFormat profile : HE-AAC / LC \nDuration : 41mn 10s \nBit rate mode : Variable \nChannel(s) : 2 channels \nSampling rate : 48.0 KHz / 24.0 KHz \nStream size : 17.7 MiB (13%) \nLanguage : English ","torrent":{"xt":"urn:btih:112170e9b177ea993e6243c9b03b10ffc13e7625","amp;dn":"Star+Crossed+S01E05+HDTV+x264+AAC+%5BGWC%5D.mp4","amp;tr":["udp%3A%2F%2Ftracker.openbittorrent.com%3A80","udp%3A%2F%2Fopen.demonii.com%3A1337","udp%3A%2F%2Ftracker.coppersurfer.tk%3A6969","udp%3A%2F%2Fexodus.desync.com%3A6969"],"infoHash":"112170e9b177ea993e6243c9b03b10ffc13e7625","infoHashBuffer":{"type":"Buffer","data":[17,33,112,233,177,119,234,153,62,98,67,201,176,59,16,255,193,62,118,37]},"announce":[],"urlList":[]}}